<svg width="263" height="295" viewBox="0 0 263 295" fill="none" xmlns="http://www.w3.org/2000/svg">
<g clip-path="url(#clip0_20_121)">
<path d="M19.011 38.0366C29.5105 38.0366 38.022 29.5218 38.022 19.0183C38.022 8.51479 29.5105 0 19.011 0C8.51151 0 0 8.51479 0 19.0183C0 29.5218 8.51151 38.0366 19.011 38.0366Z" fill="#F2F2F2"/>
<path d="M13.7905 11.882C15.2728 11.882 16.4745 10.6798 16.4745 9.1969C16.4745 7.71398 15.2728 6.51184 13.7905 6.51184C12.3081 6.51184 11.1064 7.71398 11.1064 9.1969C11.1064 10.6798 12.3081 11.882 13.7905 11.882Z" fill="#2F2E41"/>
<path d="M18.0849 22.0853C21.8402 22.0853 24.8845 19.0398 24.8845 15.2831C24.8845 11.5264 21.8402 8.48096 18.0849 8.48096C14.3297 8.48096 11.2854 11.5264 11.2854 15.2831C11.2854 19.0398 14.3297 22.0853 18.0849 22.0853Z" fill="#2F2E41"/>
<path d="M18.6476 22.0836C21.6992 22.0836 24.173 19.6089 24.173 16.5561C24.173 13.5033 21.6992 11.0286 18.6476 11.0286C15.596 11.0286 13.1222 13.5033 13.1222 16.5561C13.1222 19.6089 15.596 22.0836 18.6476 22.0836Z" fill="#9E616A"/>
<path d="M22.3999 10.9215C21.4317 10.331 20.3227 10.0116 19.1888 9.99664C18.055 9.98169 16.9379 10.2717 15.9545 10.8365C14.971 11.4012 14.1573 12.2199 13.5984 13.207C13.0395 14.194 12.7559 15.3131 12.7774 16.4473C15.5928 17.1545 18.5507 17.6957 21.5532 16.6165L22.2622 14.8804L22.6803 16.6178C23.5946 16.9917 24.5114 17.308 25.4281 16.6142C25.4655 15.4832 25.2056 14.3622 24.6742 13.3632C24.1428 12.3642 23.3586 11.5223 22.3999 10.9215Z" fill="#2F2E41"/>
<path d="M11.2915 1.90804C10.3492 1.50567 9.31308 1.37514 8.30042 1.5312C7.28777 1.68726 6.33898 2.12368 5.56137 2.79111C4.80089 3.47758 4.22195 4.34158 3.87618 5.30613C3.53041 6.27069 3.42852 7.30583 3.57961 8.31932C3.88396 10.3807 5.13668 12.1558 6.29136 13.8901C7.44605 15.6243 8.57417 17.5247 8.57288 19.6084C8.57196 21.1092 7.97612 22.5484 6.91601 23.6104C5.85591 24.6723 4.41808 25.2704 2.91785 25.2734C4.67862 26.0317 6.5164 26.8048 8.43131 26.715C10.3462 26.6251 12.3533 25.3936 12.6656 23.5014C12.8907 22.1381 12.2221 20.8087 11.6644 19.5445C10.7561 17.4845 10.0996 15.3224 9.70905 13.1051C9.45553 12.0558 9.46837 10.9597 9.74642 9.91665C10.0211 9.16254 10.5307 8.51667 11.2001 8.07429C11.8695 7.63192 12.6633 7.41645 13.4645 7.45966L14.0972 6.89021C14.2055 5.871 13.9935 4.84336 13.4906 3.95036C12.9878 3.05737 12.219 2.34346 11.2915 1.90804Z" fill="#2F2E41"/>
<path d="M33.3153 31.7431C30.0217 35.4921 25.3864 37.7951 20.4102 38.1549C15.434 38.5146 10.5159 36.9023 6.71765 33.666L8.34826 29.1143C8.71675 28.3058 9.29827 27.613 10.0304 27.11C10.7626 26.607 11.6178 26.3129 12.5044 26.2592L13.5418 26.1955L16.0153 24.0613C16.0153 24.0613 22.6802 23.8232 22.5814 23.7092L26.6185 26.1385L26.6152 26.1217L28.2022 26.219C29.0888 26.2725 29.9441 26.5665 30.6764 27.0695C31.4086 27.5725 31.99 28.2655 32.3583 29.0741L33.3153 31.7431Z" fill="#D62823"/>
<path d="M38.022 94.795C38.0153 98.5564 36.8938 102.231 34.7993 105.355C32.7048 108.479 29.7314 110.911 26.255 112.345C22.7787 113.778 18.9555 114.148 15.2691 113.407C11.5826 112.667 8.19841 110.85 5.54439 108.185C2.89038 105.521 1.08576 102.129 0.358752 98.4384C-0.368252 94.748 0.01501 90.9247 1.46006 87.4521C2.90512 83.9795 5.34707 81.0136 8.47711 78.9294C11.6071 76.8452 15.2847 75.7363 19.0447 75.7429C21.5431 75.7409 24.0173 76.2328 26.325 77.1903C28.6328 78.1479 30.7286 79.5522 32.4921 81.3227C34.2556 83.0931 35.652 85.1947 36.601 87.5067C37.55 89.8188 38.0329 92.2956 38.022 94.795Z" fill="#F2F2F2"/>
<path d="M10.1995 88.5745C10.9856 86.0683 12.7732 83.7696 15.2454 82.9224C17.7178 82.0752 21.338 83.3658 23.1967 85.2189C26.5965 88.6085 27.4262 100.253 25.0904 103.933C24.6258 103.909 23.0226 103.89 22.5523 103.873L21.8871 101.655V103.851C21.138 103.828 20.383 103.812 19.6221 103.803C17.071 103.771 14.6316 102.751 12.8166 100.958C11.0016 99.1641 9.95243 96.7363 9.88968 94.1848C9.8288 91.744 9.88972 89.5621 10.1995 88.5745Z" fill="#2F2E41"/>
<path d="M18.729 96.8807C21.7213 96.8807 24.147 94.454 24.147 91.4606C24.147 88.4672 21.7213 86.0405 18.729 86.0405C15.7368 86.0405 13.311 88.4672 13.311 91.4606C13.311 94.454 15.7368 96.8807 18.729 96.8807Z" fill="#FFB6B6"/>
<path d="M14.0531 86.7006L20.2914 83.5757C21.5668 84.1506 22.6652 85.0564 23.4727 86.1991C24.2802 87.3419 24.7674 88.6799 24.8838 90.0745L25.0393 91.9377L22.427 91.2725L22.1408 88.89L21.6972 91.0867L20.4917 90.7798L20.5031 87.081L19.2968 90.7772L14.9911 89.7875L14.0531 86.7006Z" fill="#2F2E41"/>
<path d="M33.1184 107.347C29.8248 111.096 25.1895 113.399 20.2133 113.758C15.2371 114.118 10.319 112.506 6.52075 109.27L8.15136 104.718C8.51985 103.909 9.10136 103.217 9.83354 102.714C10.5657 102.211 11.4209 101.917 12.3075 101.863L13.3449 101.799L15.8184 99.6649C15.8184 99.6649 22.4833 99.4269 22.3845 99.3129L26.4216 101.742L26.4183 101.725L28.0053 101.823C28.8919 101.876 29.7472 102.17 30.4795 102.673C31.2117 103.176 31.7931 103.869 32.1614 104.678L33.1184 107.347Z" fill="#D62823"/>
<path d="M19.011 189.383C29.5105 189.383 38.022 180.868 38.022 170.365C38.022 159.861 29.5105 151.347 19.011 151.347C8.51151 151.347 0 159.861 0 170.365C0 180.868 8.51151 189.383 19.011 189.383Z" fill="#F2F2F2"/>
<path d="M18.4862 172.721C21.8378 172.721 24.5547 170.003 24.5547 166.65C24.5547 163.297 21.8378 160.579 18.4862 160.579C15.1347 160.579 12.4177 163.297 12.4177 166.65C12.4177 170.003 15.1347 172.721 18.4862 172.721Z" fill="#FFB6B6"/>
<path d="M33.2734 183.089C29.9798 186.839 25.3446 189.142 20.3683 189.501C15.3921 189.861 10.474 188.249 6.67578 185.012L8.3064 180.461C8.67489 179.652 9.2564 178.959 9.98858 178.456C10.7208 177.953 11.576 177.659 12.4625 177.606L13.4999 177.542L15.9735 175.408C15.9735 175.408 22.6384 175.17 22.5395 175.056L26.5766 177.485L26.5733 177.468L28.1603 177.565C29.047 177.619 29.9023 177.913 30.6345 178.416C31.3667 178.919 31.9482 179.612 32.3165 180.42L33.2734 183.089Z" fill="#D62823"/>
<path d="M24.8865 162.885C24.3737 161.049 23.2086 159.463 21.6099 158.425C20.3358 157.61 18.746 157.194 17.3027 157.625C15.8593 158.056 14.6643 159.473 14.7588 161.004C14.4914 160.934 14.2096 160.94 13.9455 161.021C13.6813 161.103 13.4453 161.257 13.2641 161.466C12.9019 161.894 12.6501 162.404 12.5308 162.951C12.0676 164.668 12.0983 166.48 12.6193 168.18L12.5906 168.424C12.939 168.331 13.2616 168.16 13.5338 167.924C13.806 167.687 14.0205 167.391 14.1611 167.059C14.4932 166.415 14.6844 165.701 15.0443 165.073C15.1997 164.747 15.434 164.467 15.7259 164.256C16.0178 164.044 16.358 163.91 16.7152 163.864L16.6524 164.955C17.2659 164.639 17.8795 164.322 18.493 164.006L18.0552 165.054L19.6627 164.382C19.6028 164.718 19.5429 165.053 19.483 165.389C19.6235 165.098 19.8216 164.838 20.0655 164.625C20.3093 164.412 20.5937 164.251 20.9015 164.152C21.2093 164.052 21.5341 164.016 21.8562 164.046C22.1784 164.075 22.4912 164.17 22.7757 164.324C23.4164 164.755 23.8783 165.405 24.0749 166.153C24.2695 166.898 24.3739 167.664 24.3861 168.435C25.214 166.705 25.3917 164.735 24.8865 162.885Z" fill="#2F2E41"/>
<path d="M43.435 51.5166H1.62911C1.41499 51.517 1.2029 51.4751 1.00499 51.3933C0.807069 51.3116 0.627207 51.1916 0.475681 51.0403C0.324155 50.889 0.203937 50.7092 0.121918 50.5114C0.0398988 50.3135 -0.00231934 50.1014 -0.00231934 49.8872C-0.00231934 49.673 0.0398988 49.4609 0.121918 49.263C0.203937 49.0652 0.324155 48.8854 0.475681 48.7341C0.627207 48.5827 0.807069 48.4628 1.00499 48.381C1.2029 48.2993 1.41499 48.2574 1.62911 48.2578H43.435C45.5355 48.2284 45.5565 51.5462 43.435 51.5166Z" fill="#E4E4E4"/>
<path d="M99.7522 60.0402H1.62917C1.19718 60.0402 0.782886 59.8685 0.477426 59.5629C0.171967 59.2573 0.000366211 58.8429 0.000366211 58.4107C0.000366211 57.9786 0.171967 57.5641 0.477426 57.2586C0.782886 56.953 1.19718 56.7813 1.62917 56.7813H99.7522C101.853 56.752 101.874 60.0698 99.7522 60.0402Z" fill="#E4E4E4"/>
<path d="M133.935 64.6233C139.718 64.6233 144.405 59.9338 144.405 54.149C144.405 48.3642 139.718 43.6747 133.935 43.6747C128.152 43.6747 123.465 48.3642 123.465 54.149C123.465 59.9338 128.152 64.6233 133.935 64.6233Z" fill="#D62823"/>
<path d="M132.507 59.6004C132.326 59.6004 132.147 59.5583 131.986 59.4774C131.824 59.3964 131.683 59.279 131.575 59.1342L128.719 55.3241C128.533 55.0769 128.454 54.7662 128.497 54.4603C128.541 54.1544 128.704 53.8784 128.951 53.693C129.199 53.5076 129.509 53.428 129.815 53.4717C130.121 53.5154 130.397 53.6788 130.582 53.926L132.451 56.4185L137.251 49.2163C137.335 49.0888 137.444 48.9794 137.571 48.8941C137.699 48.8089 137.841 48.7495 137.991 48.7195C138.141 48.6894 138.296 48.6892 138.446 48.7189C138.596 48.7486 138.739 48.8075 138.866 48.8925C138.993 48.9774 139.103 49.0865 139.188 49.2137C139.273 49.3409 139.332 49.4837 139.362 49.6338C139.392 49.7839 139.392 49.9384 139.362 50.0886C139.333 50.2387 139.274 50.3816 139.189 50.5089L133.476 59.0815C133.372 59.2366 133.233 59.3645 133.07 59.4548C132.907 59.545 132.725 59.5948 132.539 59.6C132.528 59.6002 132.517 59.6004 132.507 59.6004Z" fill="white"/>
<path d="M43.435 127.19H1.62917C1.19718 127.19 0.782886 127.018 0.477426 126.713C0.171967 126.407 0.000366211 125.993 0.000366211 125.561C0.000366211 125.128 0.171967 124.714 0.477426 124.408C0.782886 124.103 1.19718 123.931 1.62917 123.931H43.435C45.5355 123.902 45.5565 127.22 43.435 127.19Z" fill="#E4E4E4"/>
<path d="M99.7521 135.713H1.62911C1.41499 135.714 1.2029 135.672 1.00499 135.59C0.807069 135.508 0.627207 135.388 0.475681 135.237C0.324155 135.086 0.203937 134.906 0.121918 134.708C0.0398988 134.51 -0.00231934 134.298 -0.00231934 134.084C-0.00231934 133.87 0.0398988 133.658 0.121918 133.46C0.203937 133.262 0.324155 133.082 0.475681 132.931C0.627207 132.78 0.807069 132.66 1.00499 132.578C1.2029 132.496 1.41499 132.454 1.62911 132.455H99.7521C101.853 132.425 101.874 135.743 99.7521 135.713Z" fill="#E4E4E4"/>
<path d="M133.935 140.297C139.718 140.297 144.405 135.607 144.405 129.822C144.405 124.038 139.718 119.348 133.935 119.348C128.152 119.348 123.465 124.038 123.465 129.822C123.465 135.607 128.152 140.297 133.935 140.297Z" fill="#D62823"/>
<path d="M132.507 135.274C132.326 135.274 132.147 135.232 131.986 135.151C131.824 135.07 131.683 134.952 131.575 134.808L128.719 130.997C128.627 130.875 128.56 130.736 128.522 130.587C128.484 130.439 128.476 130.285 128.497 130.134C128.519 129.982 128.57 129.836 128.648 129.705C128.726 129.573 128.829 129.458 128.951 129.366C129.074 129.274 129.213 129.208 129.361 129.17C129.509 129.132 129.664 129.123 129.815 129.145C129.966 129.167 130.112 129.218 130.244 129.296C130.375 129.374 130.49 129.477 130.582 129.599L132.451 132.092L137.251 124.89C137.422 124.633 137.688 124.454 137.991 124.394C138.294 124.333 138.608 124.396 138.865 124.567C139.122 124.738 139.301 125.005 139.361 125.308C139.422 125.61 139.36 125.925 139.189 126.182L133.476 134.755C133.372 134.91 133.233 135.038 133.07 135.128C132.907 135.218 132.725 135.268 132.539 135.273C132.528 135.273 132.517 135.274 132.507 135.274Z" fill="white"/>
<path d="M43.435 202.863H1.62917C1.19718 202.863 0.782885 202.691 0.477426 202.386C0.171968 202.08 0.000366211 201.666 0.000366211 201.234C0.000366211 200.802 0.171968 200.387 0.477426 200.082C0.782885 199.776 1.19718 199.604 1.62917 199.604H43.435C45.5355 199.575 45.5565 202.893 43.435 202.863Z" fill="#E4E4E4"/>
<path d="M99.7522 211.387H1.62917C1.19718 211.387 0.782886 211.215 0.477426 210.909C0.171967 210.604 0.000366211 210.189 0.000366211 209.757C0.000366211 209.325 0.171967 208.911 0.477426 208.605C0.782886 208.3 1.19718 208.128 1.62917 208.128H99.7522C101.853 208.099 101.874 211.416 99.7522 211.387Z" fill="#E4E4E4"/>
<path d="M133.935 215.97C139.718 215.97 144.405 211.28 144.405 205.496C144.405 199.711 139.718 195.021 133.935 195.021C128.152 195.021 123.465 199.711 123.465 205.496C123.465 211.28 128.152 215.97 133.935 215.97Z" fill="#D62823"/>
<path d="M132.507 210.947C132.326 210.947 132.147 210.905 131.986 210.824C131.824 210.743 131.683 210.626 131.575 210.481L128.719 206.671C128.627 206.548 128.56 206.409 128.522 206.261C128.484 206.113 128.476 205.958 128.497 205.807C128.519 205.655 128.57 205.51 128.648 205.378C128.726 205.246 128.829 205.131 128.951 205.04C129.074 204.948 129.213 204.881 129.361 204.843C129.509 204.805 129.664 204.797 129.815 204.818C129.966 204.84 130.112 204.891 130.244 204.969C130.375 205.047 130.49 205.15 130.582 205.273L132.451 207.765L137.251 200.563C137.335 200.435 137.444 200.326 137.571 200.241C137.699 200.155 137.841 200.096 137.991 200.066C138.141 200.036 138.296 200.036 138.446 200.065C138.596 200.095 138.739 200.154 138.866 200.239C138.993 200.324 139.103 200.433 139.188 200.56C139.273 200.688 139.332 200.83 139.362 200.98C139.392 201.13 139.392 201.285 139.362 201.435C139.333 201.585 139.274 201.728 139.189 201.855L133.476 210.428C133.372 210.583 133.233 210.711 133.07 210.801C132.907 210.892 132.725 210.941 132.539 210.947C132.528 210.947 132.517 210.947 132.507 210.947Z" fill="white"/>
<path d="M176.634 169.523H204.07L197.316 149.677L178.745 150.099L176.634 169.523Z" fill="#9E616A"/>
<path d="M198.775 283.89H193.36L190.784 262.995L198.775 262.996L198.775 283.89Z" fill="#9E616A"/>
<path d="M201.688 294.175H197.845L197.159 290.546L195.403 294.175H185.212C184.724 294.175 184.248 294.019 183.855 293.729C183.461 293.44 183.171 293.032 183.025 292.565C182.88 292.099 182.887 291.598 183.047 291.136C183.206 290.674 183.509 290.275 183.911 289.998L192.049 284.375V280.706L200.608 281.218L201.688 294.175Z" fill="#2F2E41"/>
<path d="M189.489 283.89H184.074L181.498 262.995L189.49 262.996L189.489 283.89Z" fill="#9E616A"/>
<path d="M192.402 294.175H188.559L187.874 290.546L186.117 294.175H175.926C175.438 294.175 174.962 294.019 174.569 293.729C174.175 293.44 173.885 293.032 173.739 292.565C173.594 292.099 173.602 291.598 173.761 291.136C173.92 290.674 174.223 290.275 174.625 289.998L182.763 284.375V280.706L191.322 281.218L192.402 294.175Z" fill="#2F2E41"/>
<path d="M176.716 165.723L204.07 165.3C204.07 165.3 213.261 184.68 209.555 196.653L198.819 231.811L189.994 276.939L181.876 274.474L179.602 271.053L181.277 264.951L180.585 261.534L177.901 230.326V229.904L176.634 216.814C170.935 197.33 172.451 185.571 176.716 165.723Z" fill="#2F2E41"/>
<path d="M195.942 229.714L200.97 266.158L199.849 267.906L200.97 270.781L199.589 277.593L191.584 279.148L183.995 246.571L195.942 229.714Z" fill="#2F2E41"/>
<path d="M177.452 160.063C177.445 160.063 177.439 160.063 177.432 160.063C177.206 160.064 176.985 159.993 176.803 159.859C176.62 159.725 176.486 159.536 176.418 159.32C175.093 155.132 173.663 149.99 174.375 149.278C174.684 149.012 175.046 148.815 175.437 148.698C176.288 148.375 176.961 148.119 176.434 146.538C176.057 145.407 177.236 144.153 176.642 143.386C175.885 142.408 176.063 141.471 176.642 140.853C177.186 140.272 175.62 137.579 176.494 134.817C176.522 134.73 176.53 134.637 176.519 134.545C176.507 134.454 176.476 134.366 176.427 134.288C175.33 132.529 172.132 128.568 176.03 124.699C179.611 121.144 181.143 114.197 182.164 113.689C182.31 113.616 182.422 113.489 182.477 113.336L183.829 109.63C183.904 109.425 184.04 109.248 184.219 109.123C184.398 108.998 184.611 108.931 184.829 108.93H195.308C195.467 108.93 195.625 108.966 195.769 109.035C195.913 109.104 196.039 109.205 196.139 109.33L201.073 115.5C201.134 115.576 201.185 115.661 201.222 115.751C201.876 117.312 207.521 131.155 204.678 136.438L204.156 137.406C201.647 142.053 200.609 143.977 201.686 145.055C202.68 146.049 202.256 146.785 202.003 147.225C201.925 147.361 201.836 147.516 201.851 147.584C202.143 148.897 201.404 149.087 201.05 149.178C201.026 149.184 200.998 149.192 200.972 149.199C201.06 149.316 201.158 149.427 201.264 149.528C201.391 149.632 201.494 149.762 201.567 149.908C201.64 150.055 201.681 150.216 201.687 150.38C201.654 150.562 201.583 150.736 201.478 150.889C201.373 151.042 201.237 151.172 201.079 151.269C200.916 151.405 200.732 151.559 200.728 151.663C200.726 151.723 200.797 151.801 200.839 151.842C201.022 152.018 201.272 152.22 201.537 152.434C202.304 153.055 203.173 153.759 203.209 154.434C203.215 154.552 203.195 154.669 203.151 154.778C203.106 154.887 203.039 154.986 202.953 155.066L200.98 157.038C200.838 157.287 201.49 158.833 201.783 159.18L201.919 159.341L201.82 159.425C201.907 159.566 201.958 159.726 201.969 159.89C201.98 160.055 201.952 160.221 201.886 160.372C201.805 160.544 201.676 160.688 201.515 160.787C201.354 160.887 201.167 160.937 200.978 160.932L177.452 160.063Z" fill="#D62823"/>
<path d="M143.088 131.326C143.894 132.157 144.995 132.636 146.151 132.662C147.308 132.688 148.429 132.259 149.272 131.466C149.458 131.29 149.628 131.098 149.78 130.892L164.644 135.399L162.363 127.736L148.598 124.631C147.613 124.012 146.424 123.806 145.289 124.057C144.153 124.308 143.162 124.996 142.53 125.973C142.002 126.796 141.769 127.774 141.871 128.747C141.972 129.72 142.402 130.63 143.088 131.326Z" fill="#9E616A"/>
<path d="M152.42 132.925L154.612 125.543L162.17 125.501L163.727 127.569L166.239 126.668L174.218 128.701L182.649 115.073C183.073 114.389 183.642 113.806 184.317 113.367C184.991 112.927 185.754 112.642 186.552 112.531C187.349 112.421 188.161 112.487 188.93 112.727C189.698 112.966 190.405 113.372 190.999 113.915C191.92 114.751 192.528 115.878 192.72 117.108C192.912 118.338 192.677 119.597 192.055 120.674L180.22 141.368L152.42 132.925Z" fill="#D62823"/>
<path d="M163.177 166.591C164.333 166.63 165.459 166.214 166.311 165.43C167.163 164.647 167.673 163.56 167.731 162.404C167.743 162.148 167.733 161.892 167.7 161.638L181.537 154.582L174.584 150.639L162.51 157.944C161.371 158.181 160.372 158.857 159.727 159.825C159.083 160.793 158.845 161.977 159.065 163.119C159.255 164.078 159.766 164.945 160.513 165.576C161.26 166.207 162.199 166.565 163.177 166.591Z" fill="#9E616A"/>
<path d="M171.011 161.273L167.477 154.432L172.897 149.162L175.451 149.573L176.638 147.182L183.798 143.114L180.435 127.446C180.266 126.658 180.273 125.843 180.454 125.059C180.636 124.275 180.989 123.54 181.487 122.907C181.985 122.275 182.616 121.76 183.336 121.399C184.056 121.039 184.846 120.842 185.651 120.822C186.895 120.786 188.114 121.177 189.104 121.93C190.095 122.683 190.798 123.753 191.095 124.962L196.901 148.085L171.011 161.273Z" fill="#D62823"/>
<path d="M190.591 106.967C196.147 106.967 200.652 102.461 200.652 96.9017C200.652 91.3427 196.147 86.8363 190.591 86.8363C185.034 86.8363 180.529 91.3427 180.529 96.9017C180.529 102.461 185.034 106.967 190.591 106.967Z" fill="#9E616A"/>
<path d="M192.109 84.6518L193.33 84.9768L193.744 85.0872L198.39 86.3242C202.507 87.4206 204.846 92.0662 203.613 96.7003C205.889 100.649 203.917 104.31 200.331 107.863C195.735 107.232 191.074 107.238 186.479 107.88L186.559 105.219L184.525 108.21C183.364 108.434 182.199 108.708 181.031 109.03C183.686 103.798 185.644 98.3944 185.978 93.8804L183.85 93.3139L184.47 90.985L183.128 93.1216L179.271 92.0947C179.626 90.7628 180.239 89.5137 181.076 88.4188C181.913 87.3239 182.957 86.4046 184.149 85.7134C185.341 85.0223 186.658 84.5728 188.024 84.3907C189.389 84.2085 190.778 84.2972 192.109 84.6518Z" fill="#2F2E41"/>
<path d="M200.684 90.8729C203.301 90.8729 205.422 88.7508 205.422 86.1329C205.422 83.515 203.301 81.3928 200.684 81.3928C198.067 81.3928 195.946 83.515 195.946 86.1329C195.946 88.7508 198.067 90.8729 200.684 90.8729Z" fill="#2F2E41"/>
<path d="M262.497 295H115.617C115.551 295 115.486 294.987 115.424 294.962C115.363 294.937 115.308 294.9 115.261 294.853C115.214 294.807 115.177 294.751 115.152 294.69C115.126 294.629 115.113 294.563 115.113 294.497C115.113 294.431 115.126 294.366 115.152 294.305C115.177 294.243 115.214 294.188 115.261 294.141C115.308 294.095 115.363 294.058 115.424 294.032C115.486 294.007 115.551 293.994 115.617 293.995H262.497C262.564 293.994 262.629 294.007 262.69 294.032C262.751 294.058 262.807 294.095 262.854 294.141C262.901 294.188 262.938 294.243 262.963 294.305C262.988 294.366 263.001 294.431 263.001 294.497C263.001 294.563 262.988 294.629 262.963 294.69C262.938 294.751 262.901 294.807 262.854 294.853C262.807 294.9 262.751 294.937 262.69 294.962C262.629 294.987 262.564 295 262.497 295Z" fill="#CCCCCC"/>
</g>
<defs>
<clipPath id="clip0_20_121">
<rect width="263" height="295" fill="white"/>
</clipPath>
</defs>
</svg>
