<svg width="358" height="287" viewBox="0 0 358 287" fill="none" xmlns="http://www.w3.org/2000/svg">
<g clip-path="url(#clip0_21_46)">
<path d="M44.7242 33.1154C41.8848 33.1198 39.1625 34.678 37.1547 37.4482C35.1469 40.2185 34.0175 43.9744 34.0143 47.8921V208.54C34.0175 212.457 35.1469 216.213 37.1547 218.984C39.1625 221.754 41.8848 223.312 44.7242 223.317H286.064C288.904 223.312 291.626 221.754 293.634 218.984C295.642 216.213 296.771 212.457 296.774 208.54V47.8921C296.771 43.9744 295.642 40.2185 293.634 37.4482C291.626 34.678 288.904 33.1198 286.064 33.1154H44.7242Z" fill="white"/>
<path d="M286.496 223.317H45.1426C42.1922 223.312 39.3636 221.695 37.2774 218.822C35.1912 215.948 34.0176 212.052 34.0143 207.988V47.595C34.0176 43.531 35.1912 39.6347 37.2774 36.761C39.3636 33.8873 42.1922 32.2709 45.1426 32.2662H286.496C289.447 32.2709 292.275 33.8873 294.362 36.761C296.448 39.6347 297.621 43.531 297.625 47.595V207.988C297.621 212.052 296.448 215.948 294.362 218.822C292.275 221.695 289.447 223.312 286.496 223.317ZM45.1426 33.4172C42.4137 33.4214 39.7975 34.9165 37.8679 37.5744C35.9383 40.2323 34.8529 43.8361 34.8498 47.595V207.988C34.8529 211.747 35.9383 215.35 37.8679 218.008C39.7975 220.666 42.4137 222.161 45.1426 222.166H286.496C289.225 222.161 291.842 220.666 293.771 218.008C295.701 215.35 296.786 211.747 296.789 207.988V47.595C296.786 43.8361 295.701 40.2323 293.771 37.5744C291.842 34.9165 289.225 33.4214 286.496 33.4172H45.1426Z" fill="#3F3D56"/>
<path d="M45.0202 214.527C45.0458 213.882 43.069 213.279 40.6049 213.181C38.1409 213.084 36.1226 213.528 36.097 214.173C36.0714 214.818 38.0482 215.42 40.5122 215.518C42.9763 215.616 44.9946 215.172 45.0202 214.527Z" fill="#E6E6E6"/>
<path d="M73.443 213.021C73.4686 212.376 71.4919 211.774 69.0278 211.676C66.5637 211.578 64.5455 212.022 64.5199 212.667C64.4943 213.312 66.4711 213.915 68.9351 214.013C71.3992 214.11 73.4174 213.667 73.443 213.021Z" fill="#3F3D56"/>
<path d="M34.0994 205.756C34.125 205.111 32.1482 204.508 29.6842 204.411C27.2201 204.313 25.2018 204.757 25.1762 205.402C25.1506 206.047 27.1274 206.649 29.5915 206.747C32.0555 206.845 34.0738 206.401 34.0994 205.756Z" fill="#FF6584"/>
<path d="M20.3713 202.552C20.4369 201.976 19.6065 201.408 18.5165 201.284C17.4265 201.16 16.4897 201.526 16.424 202.102C16.3584 202.678 17.1888 203.246 18.2788 203.37C19.3688 203.494 20.3056 203.128 20.3713 202.552Z" fill="#E6E6E6"/>
<path d="M13.8118 195.833C13.8775 195.257 13.0471 194.69 11.9571 194.565C10.8671 194.441 9.93024 194.807 9.86459 195.383C9.79894 195.96 10.6293 196.527 11.7193 196.651C12.8093 196.776 13.7462 196.409 13.8118 195.833Z" fill="#3F3D56"/>
<path d="M50.8814 207.273C50.9471 206.697 50.1167 206.129 49.0267 206.005C47.9367 205.881 46.9998 206.247 46.9342 206.823C46.8685 207.399 47.6989 207.967 48.7889 208.091C49.8789 208.215 50.8158 207.849 50.8814 207.273Z" fill="#E6E6E6"/>
<path d="M37.8731 210.132C37.9388 209.556 37.1084 208.988 36.0184 208.864C34.9284 208.739 33.9915 209.106 33.9259 209.682C33.8602 210.258 34.6906 210.826 35.7806 210.95C36.8706 211.074 37.8075 210.708 37.8731 210.132Z" fill="#FF6584"/>
<path d="M58.9136 214.737C58.9792 214.161 58.1489 213.593 57.0589 213.469C55.9689 213.344 55.032 213.711 54.9664 214.287C54.9007 214.863 55.7312 215.431 56.8212 215.555C57.9112 215.679 58.848 215.313 58.9136 214.737Z" fill="#3F3D56"/>
<path d="M2.22707e-06 191.05C-0.000194842 191.162 0.0126887 191.272 0.0379072 191.376C0.0631258 191.479 0.100185 191.573 0.146951 191.651C0.193717 191.73 0.249265 191.793 0.310404 191.835C0.371543 191.878 0.437065 191.9 0.5032 191.899H357.497C357.63 191.899 357.758 191.81 357.853 191.651C357.947 191.491 358 191.275 358 191.05C358 190.825 357.947 190.609 357.853 190.45C357.758 190.291 357.63 190.201 357.497 190.201H0.503174C0.437042 190.201 0.371527 190.223 0.310391 190.265C0.249256 190.308 0.193707 190.37 0.146945 190.449C0.100182 190.528 0.063125 190.622 0.0379072 190.725C0.0126895 190.828 -0.000192581 190.939 2.22707e-06 191.05Z" fill="#CCCCCC"/>
<path d="M257.297 10.401C255.898 -0.322371 231.164 0.361682 228.829 10.4506C227.59 9.67578 224.439 10.2121 223.264 11.1028C222.088 11.9934 221.335 13.3027 220.598 14.5737C219.591 16.3391 218.547 18.1676 218.324 20.1917C218.092 22.2119 218.886 24.5005 220.717 25.4C222.17 26.1169 225.367 25.6328 226.964 25.3119C228.079 25.0903 229.014 24.8962 229.808 24.7059C230.075 23.4502 229.891 22.1408 229.288 21.0073C229.93 21.1347 230.535 21.4026 231.061 21.7916C231.587 22.1807 232.021 22.6814 232.33 23.2578C232.455 23.4992 236.987 57.6108 236.987 57.6108C238.225 57.7601 239.475 57.7913 240.72 57.704C241.492 53.5058 241.633 49.2158 241.137 44.9761C242.449 47.3994 243.487 49.9614 244.232 52.6146C244.659 54.0986 245.009 55.6035 245.282 57.1232C256.066 55.1066 270.644 48.1605 273.304 36.366C273.289 36.328 273.275 36.2899 273.26 36.2519C273.115 35.8914 273.099 35.4917 273.216 35.121C273.333 34.7504 273.575 34.4319 273.901 34.2202C274.227 34.0085 274.616 33.9167 275.003 33.9606C275.389 34.0044 275.748 34.1811 276.018 34.4605C276.343 34.7951 276.633 35.0811 276.878 35.3027C275.932 27.7706 270.219 20.9927 257.297 10.401Z" fill="#2F2E41"/>
<path d="M99.8362 273.027L93.7904 269.866L103.378 244.52L112.301 249.186L99.8362 273.027Z" fill="#A0616A"/>
<path d="M75.4405 272.722C75.0665 273.439 74.9921 274.275 75.2337 275.047C75.4754 275.819 76.0133 276.463 76.7295 276.839L88.7512 283.123L93.059 279.922L91.6299 284.625L96.1642 287L102.88 271.052L101.349 270.135L95.1124 266.378L93.0983 265.17L90.8361 269.497L77.7686 271.108C77.2789 271.168 76.8113 271.347 76.4058 271.628C76.0003 271.909 75.6691 272.284 75.4405 272.722Z" fill="#2F2E41"/>
<path d="M93.6423 179.718L89.2448 174.501L107.72 154.678L114.211 162.377L93.6423 179.718Z" fill="#A0616A"/>
<path d="M71.1812 170.191C70.5633 170.713 70.1777 171.459 70.1089 172.265C70.04 173.071 70.2937 173.871 70.8141 174.49L79.5584 184.861L84.7581 183.53L81.6533 187.342L84.9499 191.258L97.2071 179.043L96.1379 177.614L91.7898 171.775L90.3835 169.893L86.6507 173.041L73.947 169.58C73.471 169.451 72.9706 169.439 72.4889 169.545C72.0071 169.651 71.5584 169.873 71.1812 170.191Z" fill="#2F2E41"/>
<path d="M287.587 160.171C287.587 160.171 306.258 200.136 228.94 189.367C228.94 189.367 187.747 143.712 188.937 138.219C188.937 138.219 171.405 120.403 172.263 120.079C173.12 119.754 173.65 119.05 172.232 119.114C170.814 119.178 170.814 117.067 170.814 117.067C170.814 117.067 139.129 151.431 112.45 168.482L103.226 158.105C103.226 158.105 106.823 146.851 108.553 146.851C110.282 146.851 110.878 147.267 111.157 145.041C111.435 142.816 110.058 140.904 111.899 140.707C113.741 140.509 151.91 95.8976 151.91 95.8976C151.91 95.8976 156.028 81.2036 168.61 84.0478C181.191 86.8919 246.57 140.049 246.57 140.049L287.587 160.171Z" fill="#2F2E41"/>
<path d="M256.102 190.662L153.958 189.814L109.567 260.151L97.0226 253.51L99.8035 252.336C99.8035 252.336 98.9616 242.56 99.9929 240.085C101.024 237.61 104.092 238.355 104.092 238.355L129.973 178.667C131.758 173.369 135.264 168.821 139.934 165.747C144.603 162.672 150.167 161.249 155.739 161.704C177.154 158.581 211.917 161.076 248.032 164.141L256.102 190.662Z" fill="#2F2E41"/>
<path d="M196.964 70.9557C198.908 71.2537 200.659 72.2987 201.845 73.8683C203.031 75.4379 203.557 77.4082 203.312 79.36C203.256 79.756 203.167 80.1466 203.047 80.5279L224.035 96.4492L219.704 109.942L193.31 85.0234C191.768 84.4015 190.475 83.2864 189.633 81.8522C188.791 80.418 188.447 78.7453 188.656 77.0953C188.783 76.1575 189.094 75.2541 189.571 74.4366C190.048 73.6191 190.681 72.9034 191.434 72.3306C192.188 71.7577 193.046 71.3389 193.961 71.0979C194.877 70.857 195.83 70.7987 196.768 70.9263C196.833 70.9352 196.899 70.945 196.964 70.9557Z" fill="#A0616A"/>
<path d="M289.557 71.9496L282.01 92.8431L252.499 134.549C252.499 134.549 252.257 134.446 251.819 134.261C249.282 133.166 240.07 129.142 231.405 124.57C223.271 120.275 215.609 115.495 214.422 112.209C214.295 111.863 214.179 111.529 214.076 111.206V111.2C213.523 109.526 213.176 107.792 213.044 106.034C212.946 104.679 213.032 103.953 212.848 103.866C212.704 103.803 212.404 104.114 211.741 104.818C211.695 104.864 211.654 104.91 211.608 104.95C209.21 107.354 206.264 107.043 206.985 105.902C207.723 104.731 207.336 104.754 206.253 103.532C205.446 102.621 202.822 99.0581 201.531 97.2997C201.087 96.6944 200.805 96.3023 200.805 96.3023L201.249 95.6047L202.477 93.6791L208.316 84.5238L208.639 84.0222C208.639 84.0222 220.642 86.7953 222.239 89.4301C223.842 92.0648 219.823 91.9783 223.842 92.0648C227.86 92.1513 231.959 86.6857 229.024 92.1225C226.09 97.5534 226.862 99.4502 230.494 98.5911C231.97 98.2395 234.305 99.3522 236.553 100.794V100.799C237.959 101.713 239.316 102.7 240.618 103.757C242.007 104.875 242.947 105.723 242.947 105.723L265.742 59.4734L268.267 54.3538C269.036 52.7959 270.109 51.4072 271.421 50.2687C272.734 49.1303 274.26 48.2651 275.911 47.7236L276.701 49.1015C281.618 56.3441 285.919 63.987 289.557 71.9496Z" fill="#D62823"/>
<path d="M290.819 138.262C297.806 139.888 290.373 190.753 282.045 190.911C221.513 192.064 239.943 158.101 236.698 154.849C233.452 151.592 230.523 153.927 233.452 148.859C235.585 145.169 238.75 145.717 238.796 143.647C238.819 142.875 238.41 141.745 237.349 139.888C233.452 133.062 233.452 131.027 233.452 131.027C232.48 128.977 231.792 126.805 231.405 124.57C230.773 121.246 230.695 117.841 231.175 114.492C231.907 109.579 233.746 104.897 236.553 100.799V100.793C236.847 100.355 237.153 99.9113 237.476 99.4732C238.208 98.4758 242.267 98.666 242.267 98.666L250.914 62.3445L245.91 47.862L269.61 36.7579L275.911 47.7236L276.701 49.1015C281.618 56.3441 285.919 63.987 289.557 71.9495C293.056 79.7385 295.933 88.3865 296.037 95.9102C296.313 115.53 292.929 121.364 292.929 121.364C292.929 121.364 301.144 127.504 297.034 131.257C292.929 135.016 283.832 136.636 290.819 138.262Z" fill="#D62823"/>
<path d="M183.452 66.1772L179.585 69.1148C178.822 69.6989 178.32 70.562 178.192 71.5149C178.063 72.4679 178.317 73.433 178.898 74.1989L188.212 86.4408L193.711 93.6632C194.294 94.4259 195.156 94.9264 196.107 95.055C197.058 95.1836 198.022 94.9298 198.787 94.3493L202.658 91.4082C203.419 90.8224 203.917 89.9599 204.045 89.0083C204.173 88.0568 203.92 87.0933 203.341 86.3276L202.77 85.5732L191.488 70.7493L188.528 66.8633C188.24 66.4848 187.88 66.1668 187.469 65.9275C187.058 65.6881 186.604 65.5321 186.132 65.4684C185.661 65.4047 185.182 65.4345 184.722 65.5561C184.262 65.6777 183.831 65.8888 183.452 66.1772Z" fill="#3F3D56"/>
<path d="M185.474 65.9551L181.309 68.8612C180.941 69.1014 180.629 69.4168 180.393 69.7866C180.156 70.1563 180 70.572 179.936 71.0063C179.872 71.4405 179.901 71.8834 180.02 72.3058C180.14 72.7282 180.347 73.1205 180.629 73.4568L186.082 80.027L188.987 83.527L190.926 85.8621L195.262 91.0862C195.875 91.787 196.724 92.2379 197.648 92.3528C198.572 92.4677 199.506 92.2387 200.272 91.7094L203.394 89.5319L204.432 88.8074C204.95 88.4622 205.354 87.9717 205.594 87.3976C205.834 86.8234 205.899 86.1911 205.78 85.5802C205.676 85.0726 205.447 84.599 205.113 84.2025L192.301 68.7635L190.485 66.5783C189.873 65.8765 189.023 65.425 188.099 65.31C187.174 65.195 186.24 65.4247 185.474 65.9551Z" fill="#D62823"/>
<path d="M188.136 82.182C190.081 82.48 191.832 83.525 193.018 85.0946C194.203 86.6642 194.73 88.6346 194.485 90.5864C194.429 90.9823 194.34 91.373 194.219 91.7543L215.208 107.676L210.877 121.169L184.483 96.2497C182.941 95.6278 181.647 94.5127 180.805 93.0785C179.963 91.6443 179.62 89.9717 179.828 88.3216C179.956 87.3839 180.267 86.4804 180.744 85.6629C181.22 84.8454 181.854 84.1298 182.607 83.5569C183.36 82.9841 184.219 82.5652 185.134 82.3243C186.049 82.0833 187.003 82.025 187.941 82.1526C188.006 82.1615 188.071 82.1713 188.136 82.182Z" fill="#A0616A"/>
<path d="M273.738 58.5699C275.572 58.9434 277.305 59.7077 278.818 60.8107C280.331 61.9137 281.588 63.3297 282.505 64.9622C283.422 66.5947 283.976 68.4056 284.131 70.2715C284.285 72.1375 284.036 74.0149 283.4 75.776L273.186 104.068L243.67 145.778C243.67 145.778 208.273 130.826 205.593 123.435C202.913 116.044 205.333 113.494 202.913 116.044C200.493 118.595 197.424 118.292 198.159 117.125C198.894 115.958 198.507 115.983 197.425 114.76C196.343 113.538 191.978 107.53 191.978 107.53L199.812 95.2495C199.812 95.2495 211.815 98.0206 213.414 100.657C215.013 103.293 210.994 103.207 215.013 103.293C219.033 103.38 223.133 97.912 220.197 103.347C217.261 108.782 218.035 110.677 221.667 109.816C225.3 108.955 234.117 116.95 234.117 116.95L259.442 65.5813C260.715 62.9975 262.809 60.9083 265.395 59.6398C267.981 58.3714 270.915 57.9952 273.738 58.5699Z" fill="#D62823"/>
<path d="M258.634 41.5395C265.972 34.2014 265.972 22.304 258.634 14.9659C251.297 7.62778 239.4 7.62778 232.062 14.9659C224.724 22.304 224.724 34.2014 232.062 41.5395C239.4 48.8776 251.297 48.8776 258.634 41.5395Z" fill="#A0616A"/>
<path d="M267.32 7.78224C265.92 -2.94115 241.187 -2.25709 238.852 7.83186C237.613 7.057 234.462 7.59334 233.286 8.48398C232.111 9.37463 231.358 10.6839 230.62 11.9549C229.614 13.7203 222.568 19.6928 221.513 17.9515C219.137 14.0327 214.478 22.5958 218.054 28.3291C218.911 29.7037 235.481 27.4969 237.078 27.176C238.192 26.9544 236.284 27.3663 237.078 27.176C237.334 25.9322 239.923 19.506 239.311 18.3885C239.953 18.5159 240.558 18.7838 241.084 19.1729C241.61 19.562 242.043 20.0626 242.353 20.639C242.478 20.8804 247.009 54.992 247.009 54.992C248.248 55.1413 249.498 55.1725 250.743 55.0851C251.515 50.887 251.656 46.597 251.16 42.3573C252.472 44.7806 253.51 47.3426 254.255 49.9958C254.681 51.4798 255.032 52.9847 255.305 54.5045C266.089 52.4878 280.667 45.5417 283.327 33.7472C268.785 28.9056 280.242 18.3739 267.32 7.78224Z" fill="#2F2E41"/>
<path d="M102.854 61.6684C103.095 60.012 101.36 58.3884 98.9793 58.042C96.5984 57.6955 94.473 58.7574 94.232 60.4138C93.991 62.0702 95.7258 63.6938 98.1067 64.0402C100.488 64.3867 102.613 63.3247 102.854 61.6684Z" fill="#E6E6E6"/>
<path d="M131.201 58.9021C131.442 57.2457 129.708 55.6222 127.327 55.2757C124.946 54.9293 122.82 55.9912 122.579 57.6476C122.338 59.3039 124.073 60.9276 126.454 61.274C128.835 61.6204 130.96 60.5585 131.201 58.9021Z" fill="#3F3D56"/>
<path d="M95.0918 38.7176C95.3328 37.0612 93.5981 35.4376 91.2172 35.0911C88.8362 34.7447 86.7108 35.8067 86.4698 37.463C86.2288 39.1194 87.9636 40.743 90.3445 41.0894C92.7254 41.4359 94.8508 40.374 95.0918 38.7176Z" fill="#FF6584"/>
<path d="M82.774 29.3166C82.7855 27.796 81.9374 26.5568 80.8796 26.5488C79.8219 26.5408 78.955 27.7671 78.9435 29.2877C78.9321 30.8083 79.7802 32.0475 80.838 32.0555C81.8957 32.0635 82.7625 30.8373 82.774 29.3166Z" fill="#E6E6E6"/>
<path d="M78.5969 11.8065C78.6084 10.2859 77.7603 9.04669 76.7025 9.03869C75.6447 9.03069 74.7779 10.2569 74.7664 11.7775C74.7549 13.2982 75.6031 14.5374 76.6609 14.5454C77.7186 14.5534 78.5854 13.3271 78.5969 11.8065Z" fill="#3F3D56"/>
<path d="M111.08 42.6233C111.091 41.1027 110.243 39.8635 109.185 39.8555C108.128 39.8475 107.261 41.0737 107.249 42.5943C107.238 44.1149 108.086 45.3541 109.144 45.3621C110.202 45.3701 111.068 44.1439 111.08 42.6233Z" fill="#E6E6E6"/>
<path d="M97.3812 49.4632C97.3927 47.9425 96.5446 46.7033 95.4868 46.6953C94.429 46.6873 93.5622 47.9136 93.5507 49.4342C93.5392 50.9548 94.3874 52.194 95.4452 52.202C96.5029 52.21 97.3697 50.9838 97.3812 49.4632Z" fill="#FF6584"/>
<path d="M116.45 62.1053C116.462 60.5847 115.614 59.3455 114.556 59.3375C113.498 59.3295 112.631 60.5558 112.62 62.0764C112.608 63.597 113.456 64.8362 114.514 64.8442C115.572 64.8522 116.439 63.626 116.45 62.1053Z" fill="#3F3D56"/>
<path d="M181.891 78.2745C182.15 78.0893 181.985 77.4142 181.522 76.7666C181.059 76.1191 180.474 75.7442 180.215 75.9294C179.956 76.1145 180.121 76.7896 180.584 77.4372C181.047 78.0848 181.632 78.4596 181.891 78.2745Z" fill="#3F3D56"/>
<path d="M180.162 75.9683C180.421 75.7831 180.256 75.1081 179.793 74.4605C179.33 73.8129 178.744 73.438 178.485 73.6232C178.226 73.8084 178.392 74.4835 178.855 75.131C179.318 75.7786 179.903 76.1535 180.162 75.9683Z" fill="#3F3D56"/>
</g>
<defs>
<clipPath id="clip0_21_46">
<rect width="358" height="287" fill="white"/>
</clipPath>
</defs>
</svg>
