<svg width="414" height="297" viewBox="0 0 414 297" fill="none" xmlns="http://www.w3.org/2000/svg">
<path d="M10.9619 296.345C10.9619 296.708 11.2538 297 11.6174 297H413.345C413.708 297 414 296.708 414 296.345C414 295.981 413.708 295.69 413.345 295.69H11.6174C11.2538 295.69 10.9619 295.981 10.9619 296.345Z" fill="#3F3D58"/>
<path d="M194.543 64H14.4574C7.58965 64 2 57.4938 2 49.5C2 41.5062 7.58965 35 14.4574 35H194.543C201.41 35 207 41.5062 207 49.5C207 57.4938 201.41 64 194.543 64ZM14.4574 36.7923C8.43657 36.7923 3.53985 42.492 3.53985 49.5C3.53985 56.508 8.43657 62.2077 14.4574 62.2077H194.543C200.563 62.2077 205.46 56.508 205.46 49.5C205.46 42.492 200.563 36.7923 194.543 36.7923H14.4574Z" fill="#E2E3E4"/>
<path d="M194.543 121H14.4574C7.58965 121 2 114.494 2 106.5C2 98.5062 7.58965 92 14.4574 92H194.543C201.41 92 207 98.5062 207 106.5C207 114.494 201.41 121 194.543 121ZM14.4574 93.7923C8.43657 93.7923 3.53985 99.492 3.53985 106.5C3.53985 113.508 8.43657 119.208 14.4574 119.208H194.543C200.563 119.208 205.46 113.508 205.46 106.5C205.46 99.492 200.563 93.7923 194.543 93.7923H14.4574Z" fill="#E2E3E4"/>
<path d="M194.543 179H14.4574C7.58965 179 2 172.494 2 164.5C2 156.506 7.58965 150 14.4574 150H194.543C201.41 150 207 156.506 207 164.5C207 172.494 201.41 179 194.543 179ZM14.4574 151.792C8.43657 151.792 3.53985 157.492 3.53985 164.5C3.53985 171.508 8.43657 177.208 14.4574 177.208H194.543C200.563 177.208 205.46 171.508 205.46 164.5C205.46 157.492 200.563 151.792 194.543 151.792H14.4574Z" fill="#E2E3E4"/>
<path d="M6.45974 26H40.2267C41.0309 26 41.6864 26.6497 41.6864 27.4591C41.6864 28.2629 41.0309 28.9181 40.2267 28.9181H6.45974C5.65551 28.9181 5 28.2684 5 27.4591C5 26.6552 5.65551 26 6.45974 26Z" fill="#E2E3E4"/>
<path d="M6.45974 83H40.2267C41.0309 83 41.6864 83.6497 41.6864 84.4536C41.6864 85.2574 41.0309 85.9126 40.2267 85.9126H6.45974C5.65551 85.9126 5 85.2629 5 84.4591C5 83.6552 5.65551 83 6.45974 83Z" fill="#E2E3E4"/>
<path d="M6.45974 141H40.2267C41.0309 141 41.6864 141.65 41.6864 142.459C41.6864 143.263 41.0309 143.913 40.2267 143.913H6.45974C5.65551 143.913 5 143.263 5 142.454C5 141.65 5.65551 141 6.45974 141Z" fill="#E2E3E4"/>
<path d="M337.511 73.524L325.194 77.5763V59.8528H336.37L337.511 73.524Z" fill="#9F616A"/>
<path d="M326.72 64.7586C333.498 64.7586 338.992 59.2664 338.992 52.4914C338.992 45.7164 333.498 40.2242 326.72 40.2242C319.941 40.2242 314.447 45.7164 314.447 52.4914C314.447 59.2664 319.941 64.7586 326.72 64.7586Z" fill="#9F616A"/>
<path d="M330.091 51.2746C328.036 51.214 326.686 49.1383 325.888 47.2442C325.089 45.3502 324.268 43.1754 322.362 42.3935C320.803 41.7549 318.055 46.077 316.826 44.9263C315.543 43.726 316.793 37.5649 318.154 36.4582C319.514 35.3515 321.376 35.1367 323.128 35.0542C327.403 34.8559 331.705 35.2028 335.897 36.0783C338.491 36.6178 341.157 37.4327 343.03 39.3047C345.399 41.6833 346.005 45.2676 346.175 48.6207C346.352 52.0509 346.153 55.6408 344.484 58.6415C342.815 61.6422 339.323 63.8556 335.974 63.0903C335.638 61.2733 335.979 59.4068 336.111 57.5568C336.238 55.7123 336.106 53.7192 334.977 52.2491C333.853 50.779 331.44 50.1954 330.129 51.5003" fill="#2F2E43"/>
<path d="M345.189 55.5252C346.418 54.6277 347.889 53.8734 349.398 54.0606C351.028 54.2588 352.411 55.6023 352.83 57.1935C353.248 58.7847 352.78 60.5356 351.767 61.835C350.758 63.1344 349.255 63.9933 347.668 64.4227C346.748 64.6705 345.74 64.7751 344.864 64.4007C343.575 63.8446 342.876 62.1984 343.383 60.8879" fill="#2F2E43"/>
<path d="M298.224 170.946C297.403 174.976 298.907 178.659 301.573 179.172C304.239 179.684 307.065 176.826 307.881 172.796C308.228 171.188 308.172 169.525 307.721 167.939L317.873 104.759L305.176 102.37L300.273 166.513C299.232 167.813 298.533 169.332 298.224 170.951V170.946Z" fill="#9F616A"/>
<path d="M325.061 69.4441H316.397C310.271 70.3746 308.608 73.6396 307.214 79.6741C305.088 88.88 302.372 101.136 302.912 101.318C303.777 101.604 318.528 108.542 326.047 106.956L325.061 69.4441Z" fill="#D62823"/>
<path d="M333.44 270.691H321.905V287.049H333.44V270.691Z" fill="#9F616A"/>
<path d="M310.673 296.949C309.461 296.949 308.382 296.921 307.567 296.844C304.504 296.563 301.579 294.3 300.108 292.979C299.447 292.384 299.238 291.437 299.579 290.622C299.827 290.039 300.317 289.598 300.929 289.427L309.026 287.115L322.136 278.272L322.285 278.537C322.34 278.636 323.629 280.954 324.059 282.518C324.224 283.112 324.18 283.608 323.932 283.993C323.761 284.257 323.519 284.412 323.326 284.5C323.563 284.747 324.307 285.254 326.598 285.617C329.942 286.146 330.647 282.683 330.675 282.54L330.697 282.424L330.796 282.358C332.388 281.334 333.368 280.866 333.704 280.965C333.914 281.025 334.266 281.136 335.219 290.567C335.313 290.864 335.979 293.034 335.528 295.11C335.037 297.367 325.166 296.591 323.189 296.414C323.133 296.42 315.741 296.949 310.679 296.949H310.673Z" fill="#2F2E43"/>
<path d="M366.285 257.839L356.497 263.94L365.158 277.82L374.945 271.719L366.285 257.839Z" fill="#9F616A"/>
<path d="M353.287 294.708C351.932 294.708 350.687 294.542 349.8 294.388C348.93 294.234 348.247 293.54 348.103 292.67C348.004 292.043 348.186 291.41 348.616 290.942L354.262 284.698L360.707 270.261L360.971 270.404C361.07 270.46 363.389 271.742 364.585 272.844C365.042 273.262 365.268 273.708 365.257 274.165C365.251 274.484 365.13 274.738 365.009 274.919C365.339 275.007 366.237 275.04 368.375 274.137C371.492 272.822 370.258 269.507 370.203 269.369L370.159 269.259L370.209 269.155C371.019 267.442 371.597 266.528 371.939 266.435C372.153 266.374 372.506 266.281 378.306 273.785C378.543 273.983 380.256 275.475 380.972 277.474C381.749 279.649 372.963 284.213 371.195 285.105C371.14 285.149 361.946 291.828 358.167 293.728C356.669 294.482 354.895 294.713 353.281 294.713L353.287 294.708Z" fill="#2F2E43"/>
<path d="M341.934 133.896H309.638L306.707 163.926L319.531 274.881H336.018L329.424 210.797L356.168 268.654L370.82 258.402L349.938 204.389C349.938 204.389 357.396 157.335 351.535 145.613C345.674 133.896 341.934 133.896 341.934 133.896Z" fill="#2F2E43"/>
<path d="M358.002 135.724H306.707L322.098 69.4441H344.446L358.002 135.724Z" fill="#D62823"/>
<path d="M362.618 170.946C363.439 174.976 361.935 178.659 359.269 179.172C356.603 179.684 353.777 176.826 352.962 172.796C352.615 171.188 352.67 169.525 353.122 167.939L342.969 104.759L355.667 102.37L360.569 166.513C361.61 167.813 362.31 169.332 362.618 170.951V170.946Z" fill="#9F616A"/>
<path d="M335.781 69.4441H344.446C350.571 70.3746 352.235 73.6396 353.628 79.6741C355.755 88.88 358.47 101.136 357.93 101.318C357.066 101.604 342.314 108.542 334.795 106.956L335.781 69.4441Z" fill="#D62823"/>
<rect x="5.5" y="207.5" width="113" height="24" rx="12" fill="#D62823" stroke="#D62823"/>
<path d="M43.5113 223.066C42.9393 223.066 42.3893 222.974 41.8613 222.791C41.3406 222.6 40.9373 222.358 40.6513 222.065L40.9703 221.438C41.2416 221.702 41.6046 221.926 42.0593 222.109C42.5213 222.285 43.0053 222.373 43.5113 222.373C43.9953 222.373 44.3876 222.314 44.6883 222.197C44.9963 222.072 45.2199 221.907 45.3593 221.702C45.5059 221.497 45.5793 221.269 45.5793 221.02C45.5793 220.719 45.4913 220.477 45.3153 220.294C45.1466 220.111 44.9229 219.968 44.6443 219.865C44.3656 219.755 44.0576 219.66 43.7203 219.579C43.3829 219.498 43.0456 219.414 42.7083 219.326C42.3709 219.231 42.0593 219.106 41.7733 218.952C41.4946 218.798 41.2673 218.596 41.0913 218.347C40.9226 218.09 40.8383 217.757 40.8383 217.346C40.8383 216.965 40.9373 216.616 41.1353 216.301C41.3406 215.978 41.6523 215.722 42.0703 215.531C42.4883 215.333 43.0236 215.234 43.6763 215.234C44.1089 215.234 44.5379 215.296 44.9633 215.421C45.3886 215.538 45.7553 215.703 46.0633 215.916L45.7883 216.565C45.4583 216.345 45.1063 216.184 44.7323 216.081C44.3656 215.978 44.0099 215.927 43.6653 215.927C43.2033 215.927 42.8219 215.989 42.5213 216.114C42.2206 216.239 41.9969 216.407 41.8503 216.62C41.7109 216.825 41.6413 217.06 41.6413 217.324C41.6413 217.625 41.7256 217.867 41.8943 218.05C42.0703 218.233 42.2976 218.376 42.5763 218.479C42.8623 218.582 43.1739 218.673 43.5113 218.754C43.8486 218.835 44.1823 218.923 44.5123 219.018C44.8496 219.113 45.1576 219.238 45.4363 219.392C45.7223 219.539 45.9496 219.737 46.1183 219.986C46.2943 220.235 46.3823 220.562 46.3823 220.965C46.3823 221.339 46.2796 221.687 46.0743 222.01C45.8689 222.325 45.5536 222.582 45.1283 222.78C44.7103 222.971 44.1713 223.066 43.5113 223.066ZM47.9909 223V217.225H48.7719V223H47.9909ZM48.3869 215.949C48.2255 215.949 48.0899 215.894 47.9799 215.784C47.8699 215.674 47.8149 215.542 47.8149 215.388C47.8149 215.234 47.8699 215.106 47.9799 215.003C48.0899 214.893 48.2255 214.838 48.3869 214.838C48.5482 214.838 48.6839 214.889 48.7939 214.992C48.9039 215.095 48.9589 215.223 48.9589 215.377C48.9589 215.538 48.9039 215.674 48.7939 215.784C48.6912 215.894 48.5555 215.949 48.3869 215.949ZM53.409 225.189C52.881 225.189 52.375 225.112 51.891 224.958C51.407 224.804 51.0146 224.584 50.714 224.298L51.11 223.704C51.3813 223.946 51.715 224.137 52.111 224.276C52.5143 224.423 52.9396 224.496 53.387 224.496C54.1203 224.496 54.6593 224.324 55.004 223.979C55.3486 223.642 55.521 223.114 55.521 222.395V220.954L55.631 219.964L55.554 218.974V217.225H56.302V222.296C56.302 223.293 56.0563 224.023 55.565 224.485C55.081 224.954 54.3623 225.189 53.409 225.189ZM53.266 222.78C52.716 222.78 52.221 222.663 51.781 222.428C51.341 222.186 50.9926 221.852 50.736 221.427C50.4866 221.002 50.362 220.514 50.362 219.964C50.362 219.414 50.4866 218.93 50.736 218.512C50.9926 218.087 51.341 217.757 51.781 217.522C52.221 217.287 52.716 217.17 53.266 217.17C53.7793 217.17 54.2413 217.276 54.652 217.489C55.0626 217.702 55.389 218.017 55.631 218.435C55.873 218.853 55.994 219.363 55.994 219.964C55.994 220.565 55.873 221.075 55.631 221.493C55.389 221.911 55.0626 222.23 54.652 222.45C54.2413 222.67 53.7793 222.78 53.266 222.78ZM53.343 222.087C53.7683 222.087 54.146 221.999 54.476 221.823C54.806 221.64 55.0663 221.39 55.257 221.075C55.4476 220.752 55.543 220.382 55.543 219.964C55.543 219.546 55.4476 219.179 55.257 218.864C55.0663 218.549 54.806 218.303 54.476 218.127C54.146 217.944 53.7683 217.852 53.343 217.852C52.925 217.852 52.5473 217.944 52.21 218.127C51.88 218.303 51.6196 218.549 51.429 218.864C51.2456 219.179 51.154 219.546 51.154 219.964C51.154 220.382 51.2456 220.752 51.429 221.075C51.6196 221.39 51.88 221.64 52.21 221.823C52.5473 221.999 52.925 222.087 53.343 222.087ZM61.4232 217.17C61.8926 217.17 62.3032 217.262 62.6552 217.445C63.0146 217.621 63.2932 217.892 63.4912 218.259C63.6966 218.626 63.7992 219.088 63.7992 219.645V223H63.0182V219.722C63.0182 219.113 62.8642 218.655 62.5562 218.347C62.2556 218.032 61.8302 217.874 61.2802 217.874C60.8696 217.874 60.5102 217.958 60.2022 218.127C59.9016 218.288 59.6669 218.527 59.4982 218.842C59.3369 219.15 59.2562 219.524 59.2562 219.964V223H58.4752V217.225H59.2232V218.809L59.1022 218.512C59.2856 218.094 59.5789 217.768 59.9822 217.533C60.3856 217.291 60.8659 217.17 61.4232 217.17ZM72.0547 223.066C71.0721 223.066 70.2984 222.784 69.7337 222.219C69.1691 221.654 68.8867 220.818 68.8867 219.711V215.3H69.7007V219.678C69.7007 220.587 69.9061 221.258 70.3167 221.691C70.7274 222.124 71.3067 222.34 72.0547 222.34C72.8101 222.34 73.3931 222.124 73.8037 221.691C74.2144 221.258 74.4197 220.587 74.4197 219.678V215.3H75.2117V219.711C75.2117 220.818 74.9294 221.654 74.3647 222.219C73.8074 222.784 73.0374 223.066 72.0547 223.066ZM80.4806 223.055C79.982 223.055 79.531 222.941 79.1276 222.714C78.7243 222.479 78.4016 222.146 78.1596 221.713C77.925 221.273 77.8076 220.738 77.8076 220.107C77.8076 219.476 77.925 218.945 78.1596 218.512C78.3943 218.072 78.7133 217.738 79.1166 217.511C79.52 217.284 79.9746 217.17 80.4806 217.17C81.0306 217.17 81.522 217.295 81.9546 217.544C82.3946 217.786 82.7393 218.131 82.9886 218.578C83.238 219.018 83.3626 219.528 83.3626 220.107C83.3626 220.694 83.238 221.207 82.9886 221.647C82.7393 222.087 82.3946 222.432 81.9546 222.681C81.522 222.93 81.0306 223.055 80.4806 223.055ZM77.4996 225.134V217.225H78.2476V218.963L78.1706 220.118L78.2806 221.284V225.134H77.4996ZM80.4256 222.362C80.8363 222.362 81.203 222.27 81.5256 222.087C81.8483 221.896 82.105 221.632 82.2956 221.295C82.4863 220.95 82.5816 220.554 82.5816 220.107C82.5816 219.66 82.4863 219.267 82.2956 218.93C82.105 218.593 81.8483 218.329 81.5256 218.138C81.203 217.947 80.8363 217.852 80.4256 217.852C80.015 217.852 79.6446 217.947 79.3146 218.138C78.992 218.329 78.7353 218.593 78.5446 218.93C78.3613 219.267 78.2696 219.66 78.2696 220.107C78.2696 220.554 78.3613 220.95 78.5446 221.295C78.7353 221.632 78.992 221.896 79.3146 222.087C79.6446 222.27 80.015 222.362 80.4256 222.362Z" fill="white"/>
</svg>
